#Comment line ignore any data following # character 
#Hierarchical Translation and Rotation (.htr) file 
[Header]	
#Header keywords are followed by a single value 
FileType HTR		#Single word string
DataType HTRS		#Translation followed by rotation and scale data
FileVersion 1		#integer
NumSegments 84		#integer
NumFrames 2		#integer
DataFrameRate 30		#integer, data frame rate in this file
EulerRotationOrder ZYX
CalibrationUnits mm
RotationUnits Degrees
GlobalAxisofGravity Y
BoneLengthAxis Y
ScaleFactor 1.00
[SegmentNames&Hierarchy]
#CHILD	PARENT
MASTER GLOBAL
root MASTER
chest root
L_mid_tent01 root
R_mid_tent01 root
spine01 root
Bip01_Neck chest
L_humerus chest
R_humerus chest
weapon_bone chest
Bip01_Head Bip01_Neck
eye_left_bone Bip01_Head
eye_right_bone Bip01_Head
L_forearm L_humerus
L_front_hand L_forearm
L_weapon_bone L_forearm
L_front_hand01_01 L_front_hand
L_front_hand02_01 L_front_hand
L_front_hand03_01 L_front_hand
L_front_hand01_02 L_front_hand01_01
L_front_hand02_02 L_front_hand02_01
L_front_hand03_02 L_front_hand03_01
R_forearm R_humerus
R_front_hand R_forearm
R_weapon_bone R_forearm
R_front_hand01_01 R_front_hand
R_front_hand02_01 R_front_hand
R_front_hand03_01 R_front_hand
R_front_hand01_02 R_front_hand01_01
R_front_hand02_02 R_front_hand02_01
R_front_hand03_02 R_front_hand03_01
null_rope01_connect L_mid_tent01
Rope1_Seg01 null_rope01_connect
Rope1_Seg02 Rope1_Seg01
Rope1_Seg03 Rope1_Seg02
Rope1_Seg04 Rope1_Seg03
Rope1_Seg05 Rope1_Seg04
Rope1_Seg06 Rope1_Seg05
Rope1_Seg07 Rope1_Seg06
Rope1_Seg09 Rope1_Seg07
L_mid_hand01 Rope1_Seg09
L_mid_hand02 Rope1_Seg09
L_mid_hand03 Rope1_Seg09
null_rope02_connect R_mid_tent01
Rope2_Seg01 null_rope02_connect
Rope2_Seg02 Rope2_Seg01
Rope2_Seg03 Rope2_Seg02
Rope2_Seg04 Rope2_Seg03
Rope2_Seg05 Rope2_Seg04
Rope2_Seg06 Rope2_Seg05
Rope2_Seg07 Rope2_Seg06
Rope2_Seg09 Rope2_Seg07
R_mid_hand01 Rope2_Seg09
R_mid_hand02 Rope2_Seg09
R_mid_hand03 Rope2_Seg09
spine02 spine01
spine03 spine02
pelvis spine03
null_rope03_connect pelvis
null_rope04_connect pelvis
Rope3_Seg01 null_rope03_connect
Rope3_Seg02 Rope3_Seg01
Rope3_Seg03 Rope3_Seg02
Rope3_Seg04 Rope3_Seg03
Rope3_Seg05 Rope3_Seg04
Rope3_Seg06 Rope3_Seg05
Rope3_Seg07 Rope3_Seg06
Rope3_Seg08 Rope3_Seg07
Rope3_Seg09 Rope3_Seg08
R_rear_hand01 Rope3_Seg09
R_rear_hand02 Rope3_Seg09
R_rear_hand03 Rope3_Seg09
Rope4_Seg01 null_rope04_connect
Rope4_Seg02 Rope4_Seg01
Rope4_Seg03 Rope4_Seg02
Rope4_Seg04 Rope4_Seg03
Rope4_Seg05 Rope4_Seg04
Rope4_Seg06 Rope4_Seg05
Rope4_Seg07 Rope4_Seg06
Rope4_Seg08 Rope4_Seg07
Rope4_Seg09 Rope4_Seg08
L_rear_hand01 Rope4_Seg09
L_rear_hand02 Rope4_Seg09
L_rear_hand03 Rope4_Seg09
[BasePosition]
#SegmentName Tx, Ty, Tz, Rx, Ry, Rz, BoneLength
MASTER 0.000000 0.000000 0.000000 -90.000000 0.000000 0.000000 10.000000 
root 0.000000 0.000000 0.000000 0.000000 0.000000 0.000000 10.000000 
chest 0.000000 0.000000 0.000000 0.000000 0.000000 0.000000 10.000000 
L_mid_tent01 0.000000 0.000000 0.000000 0.000000 0.000000 0.000000 10.000000 
R_mid_tent01 0.000000 0.000000 0.000000 0.000000 0.000000 0.000000 10.000000 
spine01 0.000000 0.000000 0.000000 0.000000 0.000000 0.000000 10.000000 
Bip01_Neck 0.000000 0.000000 0.000000 0.000000 0.000000 0.000000 10.000000 
L_humerus 0.000000 0.000000 0.000000 0.000000 0.000000 0.000000 10.000000 
R_humerus 0.000000 0.000000 0.000000 0.000000 0.000000 0.000000 10.000000 
weapon_bone 0.000000 0.000000 0.000000 0.000000 0.000000 0.000000 10.000000 
Bip01_Head 0.000000 0.000000 0.000000 0.000000 0.000000 0.000000 10.000000 
eye_left_bone 0.000000 0.000000 0.000000 0.000000 0.000000 0.000000 10.000000 
eye_right_bone 0.000000 0.000000 0.000000 0.000000 0.000000 0.000000 10.000000 
L_forearm 0.000000 0.000000 0.000000 0.000000 0.000000 0.000000 10.000000 
L_front_hand 0.000000 0.000000 0.000000 0.000000 0.000000 0.000000 10.000000 
L_weapon_bone 0.000000 0.000000 0.000000 0.000000 0.000000 0.000000 10.000000 
L_front_hand01_01 0.000000 0.000000 0.000000 0.000000 0.000000 0.000000 10.000000 
L_front_hand02_01 0.000000 0.000000 0.000000 0.000000 0.000000 0.000000 10.000000 
L_front_hand03_01 0.000000 0.000000 0.000000 0.000000 0.000000 0.000000 10.000000 
L_front_hand01_02 0.000000 0.000000 0.000000 0.000000 0.000000 0.000000 10.000000 
L_front_hand02_02 0.000000 0.000000 0.000000 0.000000 0.000000 0.000000 10.000000 
L_front_hand03_02 0.000000 0.000000 0.000000 0.000000 0.000000 0.000000 10.000000 
R_forearm 0.000000 0.000000 0.000000 0.000000 0.000000 0.000000 10.000000 
R_front_hand 0.000000 0.000000 0.000000 0.000000 0.000000 0.000000 10.000000 
R_weapon_bone 0.000000 0.000000 0.000000 0.000000 0.000000 0.000000 10.000000 
R_front_hand01_01 0.000000 0.000000 0.000000 0.000000 0.000000 0.000000 10.000000 
R_front_hand02_01 0.000000 0.000000 0.000000 0.000000 0.000000 0.000000 10.000000 
R_front_hand03_01 0.000000 0.000000 0.000000 0.000000 0.000000 0.000000 10.000000 
R_front_hand01_02 0.000000 0.000000 0.000000 0.000000 0.000000 0.000000 10.000000 
R_front_hand02_02 0.000000 0.000000 0.000000 0.000000 0.000000 0.000000 10.000000 
R_front_hand03_02 0.000000 0.000000 0.000000 0.000000 0.000000 0.000000 10.000000 
null_rope01_connect 0.000000 0.000000 0.000000 0.000000 0.000000 0.000000 10.000000 
Rope1_Seg01 0.000000 0.000000 0.000000 0.000000 0.000000 0.000000 10.000000 
Rope1_Seg02 0.000000 0.000000 0.000000 0.000000 0.000000 0.000000 10.000000 
Rope1_Seg03 0.000000 0.000000 0.000000 0.000000 0.000000 0.000000 10.000000 
Rope1_Seg04 0.000000 0.000000 0.000000 0.000000 0.000000 0.000000 10.000000 
Rope1_Seg05 0.000000 0.000000 0.000000 0.000000 0.000000 0.000000 10.000000 
Rope1_Seg06 0.000000 0.000000 0.000000 0.000000 0.000000 0.000000 10.000000 
Rope1_Seg07 0.000000 0.000000 0.000000 0.000000 0.000000 0.000000 10.000000 
Rope1_Seg09 0.000000 0.000000 0.000000 0.000000 0.000000 0.000000 10.000000 
L_mid_hand01 0.000000 0.000000 0.000000 0.000000 0.000000 0.000000 10.000000 
L_mid_hand02 0.000000 0.000000 0.000000 0.000000 0.000000 0.000000 10.000000 
L_mid_hand03 0.000000 0.000000 0.000000 0.000000 0.000000 0.000000 10.000000 
null_rope02_connect 0.000000 0.000000 0.000000 0.000000 0.000000 0.000000 10.000000 
Rope2_Seg01 0.000000 0.000000 0.000000 0.000000 0.000000 0.000000 10.000000 
Rope2_Seg02 0.000000 0.000000 0.000000 0.000000 0.000000 0.000000 10.000000 
Rope2_Seg03 0.000000 0.000000 0.000000 0.000000 0.000000 0.000000 10.000000 
Rope2_Seg04 0.000000 0.000000 0.000000 0.000000 0.000000 0.000000 10.000000 
Rope2_Seg05 0.000000 0.000000 0.000000 0.000000 0.000000 0.000000 10.000000 
Rope2_Seg06 0.000000 0.000000 0.000000 0.000000 0.000000 0.000000 10.000000 
Rope2_Seg07 0.000000 0.000000 0.000000 0.000000 0.000000 0.000000 10.000000 
Rope2_Seg09 0.000000 0.000000 0.000000 0.000000 0.000000 0.000000 10.000000 
R_mid_hand01 0.000000 0.000000 0.000000 0.000000 0.000000 0.000000 10.000000 
R_mid_hand02 0.000000 0.000000 0.000000 0.000000 0.000000 0.000000 10.000000 
R_mid_hand03 0.000000 0.000000 0.000000 0.000000 0.000000 0.000000 10.000000 
spine02 0.000000 0.000000 0.000000 0.000000 0.000000 0.000000 10.000000 
spine03 0.000000 0.000000 0.000000 0.000000 0.000000 0.000000 10.000000 
pelvis 0.000000 0.000000 0.000000 0.000000 0.000000 0.000000 10.000000 
null_rope03_connect 0.000000 0.000000 0.000000 0.000000 0.000000 0.000000 10.000000 
null_rope04_connect 0.000000 0.000000 0.000000 0.000000 0.000000 0.000000 10.000000 
Rope3_Seg01 0.000000 0.000000 0.000000 0.000000 0.000000 0.000000 10.000000 
Rope3_Seg02 0.000000 0.000000 0.000000 0.000000 0.000000 0.000000 10.000000 
Rope3_Seg03 0.000000 0.000000 0.000000 0.000000 0.000000 0.000000 10.000000 
Rope3_Seg04 0.000000 0.000000 0.000000 0.000000 0.000000 0.000000 10.000000 
Rope3_Seg05 0.000000 0.000000 0.000000 0.000000 0.000000 0.000000 10.000000 
Rope3_Seg06 0.000000 0.000000 0.000000 0.000000 0.000000 0.000000 10.000000 
Rope3_Seg07 0.000000 0.000000 0.000000 0.000000 0.000000 0.000000 10.000000 
Rope3_Seg08 0.000000 0.000000 0.000000 0.000000 0.000000 0.000000 10.000000 
Rope3_Seg09 0.000000 0.000000 0.000000 0.000000 0.000000 0.000000 10.000000 
R_rear_hand01 0.000000 0.000000 0.000000 0.000000 0.000000 0.000000 10.000000 
R_rear_hand02 0.000000 0.000000 0.000000 0.000000 0.000000 0.000000 10.000000 
R_rear_hand03 0.000000 0.000000 0.000000 0.000000 0.000000 0.000000 10.000000 
Rope4_Seg01 0.000000 0.000000 0.000000 0.000000 0.000000 0.000000 10.000000 
Rope4_Seg02 0.000000 0.000000 0.000000 0.000000 0.000000 0.000000 10.000000 
Rope4_Seg03 0.000000 0.000000 0.000000 0.000000 0.000000 0.000000 10.000000 
Rope4_Seg04 0.000000 0.000000 0.000000 0.000000 0.000000 0.000000 10.000000 
Rope4_Seg05 0.000000 0.000000 0.000000 0.000000 0.000000 0.000000 10.000000 
Rope4_Seg06 0.000000 0.000000 0.000000 0.000000 0.000000 0.000000 10.000000 
Rope4_Seg07 0.000000 0.000000 0.000000 0.000000 0.000000 0.000000 10.000000 
Rope4_Seg08 0.000000 0.000000 0.000000 0.000000 0.000000 0.000000 10.000000 
Rope4_Seg09 0.000000 0.000000 0.000000 0.000000 0.000000 0.000000 10.000000 
L_rear_hand01 0.000000 0.000000 0.000000 0.000000 0.000000 0.000000 10.000000 
L_rear_hand02 0.000000 0.000000 0.000000 0.000000 0.000000 0.000000 10.000000 
L_rear_hand03 0.000000 0.000000 0.000000 0.000000 0.000000 0.000000 10.000000 
#Beginning of Data. Separated by tabs
#Fr	Tx	Ty	Tz	Rx	Ry	Rz	SF
[MASTER]
14 0.000000 0.000000 0.000000 0.001660 0.001660 0.001660 0.000000
15 0.000000 0.000000 0.000000 0.001660 0.001660 0.001660 0.000000
[root]
14 -37.156479 -53.128368 1502.532593 -85.268562 -24.185915 -94.231560 1503.930664
15 -36.739601 -53.643433 1502.481445 -86.078751 -25.814112 -92.191566 1503.887573
[chest]
14 -84.512650 -34.090519 0.000000 -8.239038 -22.568987 163.003326 91.129311
15 -84.512650 -34.090519 0.000000 -10.509270 -27.267450 167.396591 91.129311
[L_mid_tent01]
14 27.299150 22.179041 -249.918701 2.560106 10.369686 79.466461 252.381683
15 27.299152 22.179035 -249.918701 2.781747 16.835356 79.855560 252.381683
[R_mid_tent01]
14 23.228794 24.509907 226.238495 165.933853 -14.551097 75.980461 228.744751
15 23.228794 24.509907 226.238495 165.389587 -22.749399 78.340027 228.744751
[spine01]
14 -0.361383 -0.195265 0.000000 0.002062 0.001122 32.879829 0.410763
15 -0.361383 -0.195265 0.000000 0.002062 0.001122 32.879829 0.410763
[Bip01_Neck]
14 165.484543 71.581718 0.000119 176.643677 -1.657967 43.431911 180.302734
15 165.484543 71.581718 0.000119 176.643677 -1.657967 43.431911 180.302734
[L_humerus]
14 -13.983130 -135.272980 -120.471481 162.514984 21.224989 -66.837769 181.680161
15 -13.983130 -135.272980 -120.471481 162.879257 22.425148 -68.513412 181.680161
[R_humerus]
14 -13.983309 -135.273102 125.287651 -176.091309 -8.492082 -87.883247 184.909012
15 -13.983309 -135.273102 125.287651 -175.110168 -7.323087 -90.381348 184.909012
[weapon_bone]
14 235.964890 -300.705902 0.000000 0.000000 -89.951546 -128.212341 382.234833
15 235.964890 -300.705902 0.000000 0.000000 -89.951546 -128.212341 382.234833
[Bip01_Head]
14 213.444199 185.715363 11.776937 30.775179 3.016703 -43.894657 283.173645
15 213.444199 185.715363 11.776936 31.746403 3.033532 -43.896442 283.173645
[eye_left_bone]
14 -24.626970 125.451866 -64.772606 0.000000 -90.000000 -99.840431 143.318359
15 -24.626970 125.451866 -64.772606 0.000000 -90.000000 -99.840431 143.318359
[eye_right_bone]
14 -24.626970 125.451866 64.327362 0.000000 -89.965736 80.156380 143.117676
15 -24.626970 125.451866 64.327362 0.000000 -89.965736 80.156380 143.117676
[L_forearm]
14 322.776093 0.000000 -0.000119 0.000396 -0.002314 -109.419975 322.776093
15 322.776093 0.000000 -0.000119 0.000396 -0.002314 -109.419975 322.776093
[L_front_hand]
14 241.149185 -0.042021 -3.300071 -178.667953 -1.835447 -27.422342 241.171753
15 241.149185 -0.042021 -3.300071 -178.667953 -1.835447 -27.422350 241.171753
[L_weapon_bone]
14 156.183838 0.000000 0.000000 0.000014 0.000007 0.000001 156.183838
15 156.183838 0.000000 0.000000 0.000014 0.000007 0.000001 156.183838
[L_front_hand01_01]
14 86.095154 20.947098 -0.655860 -0.273650 -0.533287 65.061523 88.609184
15 86.095154 20.947098 -0.655860 -0.274633 -0.532782 65.272827 88.609184
[L_front_hand02_01]
14 86.935165 -11.437475 24.513514 140.858566 -54.305298 -45.287003 91.046425
15 86.935165 -11.437475 24.513514 141.090271 -54.445614 -45.572052 91.046425
[L_front_hand03_01]
14 86.637497 -14.123976 -20.424902 -141.258987 52.537949 -47.363300 90.126129
15 86.637497 -14.123976 -20.424902 -141.476303 52.677540 -47.637543 90.126129
[L_front_hand01_02]
14 71.020905 -0.000179 0.000030 0.000315 -0.002326 -105.409866 71.020905
15 71.020905 -0.000179 0.000030 0.000315 -0.002326 -105.405197 71.020905
[L_front_hand02_02]
14 71.020927 -0.000119 0.000060 0.000315 -0.002326 -105.409866 71.020927
15 71.020927 -0.000119 0.000060 0.000315 -0.002326 -105.405197 71.020927
[L_front_hand03_02]
14 71.020905 -0.000060 0.000060 0.000315 -0.002326 -105.409866 71.020905
15 71.020905 -0.000060 0.000060 0.000315 -0.002326 -105.405197 71.020905
[R_forearm]
14 322.776428 -0.000060 0.000030 0.202103 0.065158 -108.062805 322.776428
15 322.776428 -0.000060 0.000030 0.202103 0.065158 -108.062805 322.776428
[R_front_hand]
14 238.847015 -0.006795 2.210259 -2.635298 -10.645461 -26.312506 238.857239
15 238.847015 -0.006795 2.210259 -2.635298 -10.645461 -26.312506 238.857239
[R_weapon_bone]
14 155.664093 0.002503 -0.000030 0.003487 0.001180 -90.988930 155.664078
15 155.664093 0.002503 -0.000030 0.003487 0.001180 -90.988930 155.664078
[R_front_hand01_01]
14 87.624611 14.231146 22.918642 -138.707092 -52.961746 42.720669 91.683487
15 87.624611 14.231146 22.918642 -138.456909 -52.798630 42.405624 91.683487
[R_front_hand02_01]
14 89.356956 14.367283 -19.491137 139.537384 51.404167 45.405891 92.579636
15 89.356956 14.367283 -19.491137 139.300415 51.240429 45.105949 92.579636
[R_front_hand03_01]
14 87.286232 -22.307278 -0.143439 0.065057 -0.451640 -63.223511 90.091743
15 87.286232 -22.307278 -0.143439 0.064051 -0.451784 -62.968155 90.091743
[R_front_hand01_02]
14 71.020905 0.000060 0.000119 0.002323 -0.000334 106.381714 71.020905
15 71.020905 0.000060 0.000119 0.002323 -0.000334 106.381714 71.020905
[R_front_hand02_02]
14 71.020844 -0.000030 -0.000119 0.002323 -0.000334 106.381714 71.020836
15 71.020844 -0.000030 -0.000119 0.002323 -0.000334 106.381714 71.020836
[R_front_hand03_02]
14 71.020905 0.000000 0.000030 0.002323 -0.000334 106.381714 71.020905
15 71.020905 0.000000 0.000030 0.002323 -0.000334 106.381714 71.020905
[null_rope01_connect]
14 328.732483 0.000000 -0.000238 -105.020073 -79.341171 139.687302 328.732483
15 328.732483 0.000000 -0.000238 -123.919617 -74.808441 159.932693 328.732483
[Rope1_Seg01]
14 -0.000030 0.000022 0.000086 -41.141186 39.236256 -62.980431 0.000094
15 -0.000029 0.000020 0.000081 -37.206928 37.337551 -58.878712 0.000089
[Rope1_Seg02]
14 139.999863 -0.000179 0.000000 0.887368 0.891855 -2.519035 139.999863
15 139.999863 -0.000179 0.000000 0.625798 0.949101 -2.288223 139.999863
[Rope1_Seg03]
14 139.999924 0.000060 -0.000060 1.430260 1.178698 -3.510921 139.999924
15 139.999924 0.000060 -0.000060 1.009162 1.296764 -3.227105 139.999924
[Rope1_Seg04]
14 139.999924 -0.000060 -0.000119 1.315581 5.177863 -7.693178 139.999924
15 139.999924 -0.000060 -0.000119 0.543552 4.974330 -6.696278 139.999924
[Rope1_Seg05]
14 139.999832 0.000119 -0.000060 8.974578 -3.838775 -4.723425 139.999832
15 139.999832 0.000119 -0.000060 7.680048 -1.397343 -6.743448 139.999832
[Rope1_Seg06]
14 139.999954 0.000119 -0.000060 2.800426 -6.172685 3.234947 139.999954
15 139.999954 0.000119 -0.000060 4.037504 -7.049818 2.485043 139.999954
[Rope1_Seg07]
14 139.999985 0.000060 0.000000 1.281741 -1.877065 0.366501 139.999985
15 139.999985 0.000060 0.000000 1.547851 -2.057627 0.117325 139.999985
[Rope1_Seg09]
14 121.602913 0.000119 -0.000089 -89.793175 -1.359789 0.847147 121.602913
15 121.602913 0.000119 -0.000089 -89.793175 -1.359789 0.847147 121.602913
[L_mid_hand01]
14 103.859421 1.038730 8.195221 115.405022 -54.702587 -21.718943 104.187431
15 103.859421 1.038730 8.195221 118.511871 -58.710987 -25.432119 104.187431
[L_mid_hand02]
14 105.572853 -4.139662 -10.864139 -156.173538 38.796780 -54.226360 106.211075
15 105.572853 -4.139662 -10.864139 -159.626373 40.490181 -59.638344 106.211075
[L_mid_hand03]
14 104.641464 17.579376 -3.913581 -10.557026 15.605444 59.191402 106.179977
15 104.641464 17.579376 -3.913581 -9.285491 16.381809 63.801434 106.179977
[null_rope02_connect]
14 328.732849 0.000179 -0.000119 -110.099976 71.098015 28.923738 328.732849
15 328.732849 0.000179 -0.000119 -115.196083 62.302650 23.474762 328.732849
[Rope2_Seg01]
14 -0.000023 0.000103 0.000000 141.641113 54.987251 -88.584129 0.000106
15 -0.000031 0.000102 0.000000 139.860458 57.171452 -91.833511 0.000107
[Rope2_Seg02]
14 139.999741 -0.000060 -0.000119 -4.957668 -3.360945 8.797437 139.999756
15 139.999741 -0.000060 -0.000119 -4.335644 -2.020840 7.761369 139.999756
[Rope2_Seg03]
14 140.000107 0.000030 0.000000 -4.337348 -5.902170 10.880814 140.000107
15 140.000107 0.000030 0.000000 -4.478823 -4.192214 10.725073 140.000107
[Rope2_Seg04]
14 139.999802 0.000000 -0.000060 -3.628817 -15.373496 15.246707 139.999802
15 139.999802 0.000000 -0.000060 -4.578342 -13.924904 18.025991 139.999802
[Rope2_Seg05]
14 139.999985 -0.000060 0.000119 -0.329394 7.094572 4.977671 139.999985
15 139.999985 -0.000060 0.000119 -0.710386 11.172442 4.361006 139.999985
[Rope2_Seg06]
14 139.999893 -0.000030 -0.000119 -4.608835 28.525988 -3.432967 139.999893
15 139.999893 -0.000030 -0.000119 -4.659507 26.571613 -5.193936 139.999893
[Rope2_Seg07]
14 139.999893 0.000060 -0.000060 -5.666190 13.573063 0.733084 139.999893
15 139.999893 0.000060 -0.000060 -4.727528 10.881864 0.331773 139.999893
[Rope2_Seg09]
14 121.338966 0.000089 -0.000060 33.793236 -1.359788 -0.847141 121.338966
15 121.338966 0.000089 -0.000060 33.793236 -1.359788 -0.847141 121.338966
[R_mid_hand01]
14 104.680779 11.144459 -10.335981 -36.578453 32.644390 38.740570 105.778534
15 104.680779 11.144459 -10.335981 -34.826851 34.540035 41.908733 105.778534
[R_mid_hand02]
14 104.070427 2.443552 8.231699 69.973366 -43.581707 14.639650 104.424065
15 104.070427 2.443552 8.231699 68.824310 -46.622631 16.260359 104.424065
[R_mid_hand03]
14 106.028137 -11.221827 -5.996406 -170.161224 12.441347 -48.449886 106.788818
15 106.028137 -11.221827 -5.996406 -170.883774 12.973572 -51.735531 106.788818
[spine02]
14 129.756927 0.001550 0.000119 0.360061 -4.044797 -12.915058 129.756927
15 129.756927 0.001550 0.000119 0.360061 -4.044797 -12.915058 129.756927
[spine03]
14 78.614082 0.081548 -4.898995 1.896495 3.831288 16.473045 78.766624
15 78.614082 0.081553 -4.898995 1.896495 3.831288 16.473045 78.766624
[pelvis]
14 169.435242 0.051022 0.000000 -0.060465 -0.180225 14.087930 169.435257
15 169.435242 0.051022 0.000000 -0.060465 -0.180225 14.087931 169.435257
[null_rope03_connect]
14 -1.257226 -2.466202 137.391083 -21.852678 -84.136757 85.709625 137.418976
15 -1.257226 -2.466202 137.391083 -4.241763 -85.336372 69.617088 137.418976
[null_rope04_connect]
14 -1.259640 -2.480268 -137.844437 -21.852678 -84.136757 85.709625 137.872513
15 -1.259640 -2.480268 -137.844437 -4.241763 -85.336372 69.617088 137.872513
[Rope3_Seg01]
14 0.000010 0.000022 -0.000086 -131.847641 27.707544 -76.451332 0.000090
15 0.000010 0.000020 -0.000081 -130.158478 21.169409 -73.339088 0.000084
[Rope3_Seg02]
14 139.999924 -0.000119 0.000060 -0.826892 3.445363 15.182208 139.999924
15 139.999924 -0.000119 0.000060 -0.682679 4.834258 21.121078 139.999924
[Rope3_Seg03]
14 139.999924 -0.000119 0.000119 -2.294900 2.751997 13.187423 139.999924
15 139.999924 -0.000119 0.000119 -2.765208 3.267011 14.886944 139.999924
[Rope3_Seg04]
14 139.999924 0.000119 0.000000 -5.903496 3.028556 16.379742 139.999924
15 139.999924 0.000119 0.000000 -4.772365 2.623719 13.121787 139.999924
[Rope3_Seg05]
14 139.999924 -0.000238 0.000060 -2.134574 0.046420 3.463908 139.999924
15 139.999924 -0.000238 0.000060 -1.104212 -0.200266 1.630851 139.999924
[Rope3_Seg06]
14 139.999893 -0.000119 -0.000060 4.182918 -0.880998 -7.876056 139.999893
15 139.999893 -0.000119 -0.000060 2.580923 -1.415692 -5.905268 139.999893
[Rope3_Seg07]
14 139.999771 0.000060 -0.000119 6.605840 -3.477024 -21.337915 139.999771
15 139.999771 0.000060 -0.000119 4.916884 -4.046503 -16.544016 139.999771
[Rope3_Seg08]
14 139.999985 -0.000060 0.000000 2.205667 -3.558150 -12.568023 139.999985
15 139.999985 -0.000060 0.000000 2.139728 -3.868513 -11.293908 139.999985
[Rope3_Seg09]
14 90.185997 -0.000179 -0.000060 89.793228 -1.359877 -0.847183 90.185997
15 90.185997 -0.000179 -0.000060 89.793228 -1.359877 -0.847183 90.185997
[R_rear_hand01]
14 103.366196 -6.073594 -10.757982 -166.165070 20.624767 -44.436901 104.101845
15 103.366196 -6.073594 -10.757982 -167.735992 21.565800 -48.800823 104.101845
[R_rear_hand02]
14 100.509819 12.039542 -7.992327 -29.134808 26.762827 41.953499 101.543350
15 100.509819 12.039542 -7.992327 -27.197794 28.737703 46.115391 101.543350
[R_rear_hand03]
14 101.539970 5.215704 5.435467 81.948593 -44.972103 9.574173 101.819031
15 101.539970 5.215704 5.435467 81.295586 -49.108280 10.466788 101.819031
[Rope4_Seg01]
14 0.000003 0.000043 -0.000186 33.055874 28.869308 -135.984497 0.000191
15 0.000001 0.000041 -0.000188 33.989906 21.527090 -138.626282 0.000193
[Rope4_Seg02]
14 139.999985 0.000060 0.000119 3.836648 19.344557 17.253847 139.999985
15 139.999985 0.000060 0.000119 4.328434 22.595297 16.647751 139.999985
[Rope4_Seg03]
14 139.999924 0.000000 -0.000238 0.528738 17.563688 15.185306 139.999924
15 139.999924 0.000000 -0.000238 1.780675 21.507664 15.320455 139.999924
[Rope4_Seg04]
14 139.999985 0.000000 0.000119 -3.334437 14.200219 13.370794 139.999985
15 139.999985 0.000000 0.000119 -1.988976 17.185131 13.093431 139.999985
[Rope4_Seg05]
14 139.999802 -0.000060 -0.000119 -1.076936 2.457422 2.308776 139.999802
15 139.999802 -0.000060 -0.000119 -0.962183 3.422006 2.526335 139.999802
[Rope4_Seg06]
14 139.999924 0.000000 0.000060 3.094434 -3.271312 -4.596886 139.999924
15 139.999924 0.000000 0.000060 2.351304 -2.742745 -3.251555 139.999924
[Rope4_Seg07]
14 139.999802 0.000000 0.000000 6.306892 -10.960521 -13.203389 139.999802
15 139.999802 0.000000 0.000000 5.195971 -10.571632 -10.445624 139.999802
[Rope4_Seg08]
14 139.999924 0.000000 0.000119 0.730558 -7.727305 -7.910769 139.999924
15 139.999924 0.000000 0.000119 0.821453 -8.616729 -7.440584 139.999924
[Rope4_Seg09]
14 90.185791 0.000060 0.000060 -135.617828 2.228885 0.850567 90.185791
15 90.185791 0.000060 0.000060 -135.617828 2.228885 0.850567 90.185791
[L_rear_hand01]
14 101.696655 -8.392275 -7.654577 -21.399752 -33.105400 122.636459 102.329041
15 101.696655 -8.392275 -7.654577 -18.919888 -34.466518 118.185951 102.329041
[L_rear_hand02]
14 102.726799 -1.568258 5.773216 78.723900 59.531788 166.383713 102.900848
15 102.726799 -1.568258 5.773216 77.226944 63.386848 164.679077 102.900848
[L_rear_hand03]
14 104.552910 9.721220 -10.420293 -172.062332 -23.429153 -119.922249 105.519653
15 104.552910 9.721220 -10.420293 -173.780411 -23.916803 -115.646591 105.519653
